<svg version="1.1" xmlns="http://www.w3.org/2000/svg" xmlns:xlink="http://www.w3.org/1999/xlink" viewBox="0, 0, 400, 400">
  <defs>
    <!-- Darker gradients -->
    <linearGradient id="primaryGradient" x1="10%" y1="10%" x2="90%" y2="90%">
      <stop offset="0%" style="stop-color:#00287f;stop-opacity:1" />
      <stop offset="100%" style="stop-color:#001a5a;stop-opacity:1" />
    </linearGradient>
    <linearGradient id="secondaryGradient" x1="0%" y1="30%" x2="100%" y2="70%">
      <stop offset="0%" style="stop-color:#e6df00;stop-opacity:1" />
      <stop offset="100%" style="stop-color:#d9d200;stop-opacity:1" />
    </linearGradient>
    <!-- Simple shadow -->
    <filter id="simpleShadow" x="-10%" y="-10%" width="120%" height="120%">
      <feGaussianBlur in="SourceAlpha" stdDeviation="1.5" />
      <feOffset dx="1" dy="1" result="offsetblur" />
      <feComponentTransfer>
        <feFuncA type="linear" slope="0.2" />
      </feComponentTransfer>
      <feMerge>
        <feMergeNode />
        <feMergeNode in="SourceGraphic" />
      </feMerge>
    </filter>
  </defs>
  
  <!-- Main logo group -->
  <g id="logoGroup" filter="url(#simpleShadow)">
    <!-- S letter -->
    <path d="M111.475 144.362 C 108.814 145.440,105.576 147.973,103.923 150.271 C 99.961 155.781,100.655 158.261,109.294 169.440 C 123.647 188.015,127.400 197.086,127.400 213.200 C 127.400 223.770,127.063 224.667,125.385 218.556 C 121.965 206.099,116.720 196.332,109.615 189.190 C 93.038 172.525,71.993 173.758,71.277 191.437 L 71.114 195.474 72.457 197.004 C 74.281 199.082,75.794 199.657,84.466 201.571 C 111.479 207.533,121.043 214.269,125.030 230.144 C 125.967 233.876,126.379 233.598,129.539 227.100 C 144.557 196.221,145.436 162.970,131.622 148.295 C 127.899 144.339,116.857 142.184,111.475 144.362" fill="url(#primaryGradient)" />
    
    <!-- m letter parts -->
    <path d="M154.583 169.145 C 149.814 172.053,151.893 179.604,157.462 179.599 C 160.510 179.596,163.198 176.878,163.196 173.800 C 163.193 169.622,158.213 166.931,154.583 169.145" fill="url(#secondaryGradient)" />
    <path d="M148.919 184.384 C 144.823 186.882,145.711 193.684,150.295 194.910 L 152.000 195.366 152.023 211.983 C 152.039 223.763,152.184 229.003,152.523 229.986 C 153.706 233.423,159.366 234.418,162.112 231.673 L 163.400 230.385 163.510 208.974 C 163.631 185.448,163.656 185.714,161.232 184.282 C 159.444 183.226,150.700 183.298,148.919 184.384" fill="url(#secondaryGradient)" />
    <path d="M169.276 184.387 C 168.015 185.178,166.800 187.248,166.800 188.605 C 166.800 189.260,181.692 228.639,182.605 230.400 C 184.362 233.787,189.814 234.694,192.110 231.982 C 193.277 230.603,209.179 190.303,209.194 188.687 C 209.221 185.670,206.568 183.481,203.149 183.700 C 198.884 183.973,199.064 183.640,192.037 204.200 C 188.268 215.229,188.048 215.741,187.590 214.600 C 187.325 213.940,185.984 210.070,184.610 206.000 C 179.425 190.646,177.544 185.687,176.550 184.753 C 175.135 183.424,171.133 183.222,169.276 184.387" fill="url(#secondaryGradient)" />
    
    <!-- R letter -->
    <path d="M215.800 183.982 C 215.360 184.164,214.550 184.797,214.000 185.388 L 213.000 186.464 212.884 202.532 C 212.737 223.016,213.345 226.093,218.287 229.850 C 222.167 232.800,223.114 232.960,237.644 233.117 C 253.975 233.293,254.929 233.003,254.980 227.848 C 255.036 222.120,254.361 221.849,239.400 221.600 C 224.995 221.360,224.400 221.131,224.400 215.840 L 224.400 214.000 233.813 214.000 C 246.394 214.000,247.490 213.486,247.125 207.760 C 246.812 202.839,245.705 202.400,233.613 202.400 L 224.400 202.400 224.400 198.824 L 224.400 195.248 237.918 195.124 C 250.031 195.013,251.549 194.927,252.513 194.294 C 255.905 192.070,255.698 185.636,252.186 184.168 C 250.649 183.526,217.315 183.355,215.800 183.982" fill="url(#primaryGradient)" />
    
    <!-- k letter -->
    <path d="M265.708 184.184 C 262.731 185.499,262.803 184.897,262.801 208.340 C 262.800 233.536,262.721 233.203,268.660 233.199 C 274.224 233.194,274.400 232.543,274.400 212.013 L 274.400 195.200 280.100 195.201 C 289.851 195.204,289.344 194.176,289.600 214.493 L 289.800 230.386 291.088 231.673 C 292.879 233.464,296.648 233.780,298.800 232.320 C 301.180 230.706,301.238 230.185,301.113 211.730 L 301.000 195.200 306.800 195.201 C 316.667 195.204,316.144 194.152,316.400 214.493 L 316.600 230.386 317.888 231.673 C 320.575 234.359,326.056 233.479,327.452 230.138 C 328.503 227.622,328.059 197.071,326.922 193.690 C 325.441 189.285,322.162 185.992,317.761 184.488 C 314.992 183.542,267.785 183.266,265.708 184.184" fill="url(#primaryGradient)" />
  </g>
</svg>